<?xml version="1.0" encoding="utf-8"?>
<svg xmlns="http://www.w3.org/2000/svg" viewBox="0 0 48 48" width="144" height="144">
  <path d="M13 1.859375C12.80775 1.859375 12.616234 1.9465469 12.490234 2.1230469C11.633234 3.3250469 10 5.778 10 7C10 8.657 11.343 10 13 10C14.657 10 16 8.657 16 7C16 5.778 14.367719 3.3250469 13.511719 2.1230469C13.385719 1.9465469 13.19225 1.859375 13 1.859375 z M 13 10L11.5 10C10.136406 10 9 11.136406 9 12.5L9 18.039062C7.2014064 19.199096 6 21.214942 6 23.5L6 25.177734 A 1.50015 1.50015 0 0 0 6 25.712891L6 35.5C6 39.071938 8.9280619 42 12.5 42L35.5 42C39.071938 42 42 39.071938 42 35.5L42 25.714844 A 1.50015 1.50015 0 0 0 42 25.175781L42 23.5C42 21.214942 40.798594 19.199096 39 18.039062L39 12.5C39 11.136406 37.863594 10 36.5 10L35 10L33.5 10C32.136406 10 31 11.136406 31 12.5L31 17L28 17L28 12.5C28 11.136406 26.863594 10 25.5 10L24 10L22.5 10C21.136406 10 20 11.136406 20 12.5L20 17L17 17L17 12.5C17 11.136406 15.863594 10 14.5 10L13 10 z M 24 10C25.657 10 27 8.657 27 7C27 5.778 25.367719 3.3250469 24.511719 2.1230469C24.259719 1.7700469 23.742234 1.7700469 23.490234 2.1230469C22.633234 3.3250469 21 5.778 21 7C21 8.657 22.343 10 24 10 z M 35 10C36.657 10 38 8.657 38 7C38 5.778 36.367719 3.3250469 35.511719 2.1230469C35.259719 1.7700469 34.742234 1.7700469 34.490234 2.1230469C33.633234 3.3250469 32 5.778 32 7C32 8.657 33.343 10 35 10 z M 12 13L14 13L14 17L12.5 17C12.331408 17 12.165483 17.012585 12 17.025391L12 13 z M 23 13L25 13L25 17L23 17L23 13 z M 34 13L36 13L36 17.025391C35.834517 17.012585 35.668592 17 35.5 17L34 17L34 13 z M 12.5 20L15.253906 20 A 1.50015 1.50015 0 0 0 15.740234 20L21.253906 20 A 1.50015 1.50015 0 0 0 21.740234 20L26.253906 20 A 1.50015 1.50015 0 0 0 26.740234 20L32.253906 20 A 1.50015 1.50015 0 0 0 32.740234 20L35.5 20C37.450062 20 39 21.549938 39 23.5L39 25.138672C38.700459 25.677995 37.749376 27 35.5 27C32.776632 27 31.952142 25.046969 31.90625 24.935547 A 1.50015 1.50015 0 0 0 30.724609 23.998047 A 1.50015 1.50015 0 0 0 30.628906 23.988281 A 1.50015 1.50015 0 0 0 30.542969 23.982422 A 1.50015 1.50015 0 0 0 30.392578 23.986328 A 1.50015 1.50015 0 0 0 29.169922 24.775391C29.150512 24.809111 28.923403 25.216716 28.138672 25.785156C27.322404 26.376521 26.040501 27 24 27C21.959499 27 20.677596 26.37644 19.861328 25.785156C19.078098 25.217804 18.852346 24.812579 18.832031 24.777344 A 1.50015 1.50015 0 0 0 17.568359 23.982422 A 1.50015 1.50015 0 0 0 17.5625 23.982422 A 1.50015 1.50015 0 0 0 17.560547 23.982422 A 1.50015 1.50015 0 0 0 17.529297 23.980469 A 1.50015 1.50015 0 0 0 17.4375 23.984375 A 1.50015 1.50015 0 0 0 17.412109 23.984375 A 1.50015 1.50015 0 0 0 17.400391 23.986328 A 1.50015 1.50015 0 0 0 17.351562 23.990234 A 1.50015 1.50015 0 0 0 17.230469 24.005859 A 1.50015 1.50015 0 0 0 16.09375 24.9375C16.046869 25.051207 15.221675 27 12.5 27C10.250624 27 9.2995412 25.677995 9 25.138672L9 23.5C9 21.549938 10.549938 20 12.5 20 z M 17.621094 27.71875C17.859858 27.947547 17.782516 27.983733 18.101562 28.214844C19.356046 29.12356 21.323501 30 24 30C26.676499 30 28.643955 29.12356 29.898438 28.214844C30.217485 27.983733 30.140142 27.947547 30.378906 27.71875C31.366928 28.8237 32.877762 30 35.5 30C36.919101 30 38.077078 29.606487 39 29.070312L39 35.5C39 37.450062 37.450062 39 35.5 39L12.5 39C10.549938 39 9 37.450062 9 35.5L9 29.070312C9.922922 29.606487 11.080899 30 12.5 30C15.122238 30 16.633072 28.8237 17.621094 27.71875 z" fill="#FF7A01" />
</svg>