<?xml version="1.0" encoding="utf-8"?>
<svg xmlns="http://www.w3.org/2000/svg" viewBox="0 0 50 50" width="500" height="500">
  <path d="M37 2L37 4L46.5625 4L38.03125 12.53125C36.125 10.949219 33.683594 10 31 10C24.898438 10 20 14.898438 20 21C20 25.5 22.789063 29.394531 26.6875 31.09375C26.886719 30.394531 27 29.699219 27 29C24 27.5 22 24.5 22 21C22 16 26 12 31 12C36 12 40 16 40 21C40 26 36 30 31 30L30.90625 30C30.804688 30.699219 30.695313 31.300781 30.59375 32L31 32C37.101563 32 42 27.101563 42 21C42 18.316406 41.050781 15.875 39.46875 13.96875L48 5.4375L48 15L50 15L50 2 Z M 19 18C12.898438 18 8 22.898438 8 29C8 31.683594 8.949219 34.125 10.53125 36.03125L6 40.5625L1.71875 36.28125L0.28125 37.71875L4.5625 42L0.28125 46.28125L1.71875 47.71875L6 43.4375L10.28125 47.71875L11.71875 46.28125L7.4375 42L11.96875 37.46875C13.875 39.050781 16.316406 40 19 40C25.101563 40 30 35.101563 30 29C30 24.5 27.210938 20.605469 23.3125 18.90625C23.113281 19.507813 23 20.199219 23 21C26 22.5 28 25.5 28 29C28 34 24 38 19 38C14 38 10 34 10 29C10 24 14 20 19 20L19.09375 20C19.195313 19.300781 19.304688 18.699219 19.40625 18Z" fill="#FF7A01" />
</svg>