<?xml version="1.0" encoding="utf-8"?>
<svg xmlns="http://www.w3.org/2000/svg" viewBox="0 0 16 16" width="512" height="512">
  <path d="M8 1C5.574219 1 3.609375 3.019531 3.609375 5.480469C3.609375 7.105469 4.652344 8.824219 5.648438 10.203125C6.648438 11.578125 7.640625 12.59375 7.640625 12.59375C7.738281 12.691406 7.867188 12.746094 8 12.746094C8.132813 12.746094 8.261719 12.691406 8.359375 12.59375C8.359375 12.59375 9.351563 11.578125 10.347656 10.203125C11.347656 8.824219 12.390625 7.105469 12.390625 5.480469C12.390625 3.015625 10.425781 1 8 1 Z M 8 2C9.871094 2 11.390625 3.546875 11.390625 5.480469C11.390625 6.640625 10.488281 8.304688 9.539063 9.617188C8.769531 10.679688 8.261719 11.191406 8 11.46875C7.738281 11.191406 7.230469 10.679688 6.460938 9.617188C5.511719 8.304688 4.609375 6.640625 4.609375 5.480469C4.609375 3.546875 6.128906 2 8 2 Z M 8 4C7.449219 4 7 4.449219 7 5C7 5.550781 7.449219 6 8 6C8.550781 6 9 5.550781 9 5C9 4.449219 8.550781 4 8 4 Z M 4.5 10.371094C3.007813 10.765625 2 11.429688 2 12.4375C2 14.121094 5.019531 15 8 15C10.980469 15 14 14.121094 14 12.4375C14 11.421875 13.015625 10.773438 11.503906 10.375L10.863281 11.257813C12.234375 11.578125 13 12.03125 13 12.4375C13 13.074219 11.050781 14 8 14C4.949219 14 3 13.074219 3 12.4375C3 12.035156 3.765625 11.574219 5.117188 11.253906Z" fill="#FF7A01" />
</svg>